<mxfile host="app.diagrams.net" modified="2022-01-19T10:05:45.726Z" agent="5.0 (Windows NT 10.0; WOW64) AppleWebKit/537.36 (KHTML, like Gecko) Chrome/80.0.3987.87 Safari/537.36 SE 2.X MetaSr 1.0" etag="iuPzNnXsnF5bdtA-9E5B" version="16.3.0" type="github">
  <diagram id="LmvB-lLnnhAyD1Q8A4K7" name="Page-1">
    <mxGraphModel dx="1422" dy="747" grid="1" gridSize="10" guides="1" tooltips="1" connect="1" arrows="1" fold="1" page="1" pageScale="1" pageWidth="827" pageHeight="1169" math="0" shadow="0">
      <root>
        <mxCell id="0" />
        <mxCell id="1" parent="0" />
        <mxCell id="L5llQ_H--O1Ez9Xqa_5C-1" value="业务架构图" style="swimlane;childLayout=stackLayout;resizeParent=1;resizeParentMax=0;horizontal=1;startSize=20;horizontalStack=0;" vertex="1" parent="1">
          <mxGeometry x="70" y="100" width="800" height="480" as="geometry" />
        </mxCell>
        <mxCell id="L5llQ_H--O1Ez9Xqa_5C-2" value="合规审核功能" style="swimlane;startSize=20;horizontal=0;" vertex="1" parent="L5llQ_H--O1Ez9Xqa_5C-1">
          <mxGeometry y="20" width="800" height="220" as="geometry" />
        </mxCell>
        <mxCell id="L5llQ_H--O1Ez9Xqa_5C-7" value="业务送审" style="swimlane;" vertex="1" parent="L5llQ_H--O1Ez9Xqa_5C-2">
          <mxGeometry x="46" y="10" width="234" height="190" as="geometry" />
        </mxCell>
        <mxCell id="L5llQ_H--O1Ez9Xqa_5C-8" value="添加直播间" style="rounded=1;whiteSpace=wrap;html=1;" vertex="1" parent="L5llQ_H--O1Ez9Xqa_5C-7">
          <mxGeometry x="6" y="34" width="66" height="30" as="geometry" />
        </mxCell>
        <mxCell id="L5llQ_H--O1Ez9Xqa_5C-9" value="批量添加直播间" style="rounded=1;whiteSpace=wrap;html=1;" vertex="1" parent="L5llQ_H--O1Ez9Xqa_5C-7">
          <mxGeometry x="85" y="34" width="66" height="30" as="geometry" />
        </mxCell>
        <mxCell id="L5llQ_H--O1Ez9Xqa_5C-10" value="查询直播间" style="rounded=1;whiteSpace=wrap;html=1;" vertex="1" parent="L5llQ_H--O1Ez9Xqa_5C-7">
          <mxGeometry x="161" y="34" width="66" height="30" as="geometry" />
        </mxCell>
        <mxCell id="L5llQ_H--O1Ez9Xqa_5C-17" value="我的直播数据" style="rounded=1;whiteSpace=wrap;html=1;" vertex="1" parent="L5llQ_H--O1Ez9Xqa_5C-7">
          <mxGeometry x="85" y="80" width="66" height="30" as="geometry" />
        </mxCell>
        <mxCell id="L5llQ_H--O1Ez9Xqa_5C-18" value="修改直播间资料" style="rounded=1;whiteSpace=wrap;html=1;" vertex="1" parent="L5llQ_H--O1Ez9Xqa_5C-7">
          <mxGeometry x="161" y="80" width="66" height="30" as="geometry" />
        </mxCell>
        <mxCell id="L5llQ_H--O1Ez9Xqa_5C-20" value="合规审核" style="swimlane;" vertex="1" parent="L5llQ_H--O1Ez9Xqa_5C-2">
          <mxGeometry x="290" y="15" width="234" height="190" as="geometry" />
        </mxCell>
        <mxCell id="L5llQ_H--O1Ez9Xqa_5C-24" value="查询待审核列表" style="rounded=1;whiteSpace=wrap;html=1;" vertex="1" parent="L5llQ_H--O1Ez9Xqa_5C-20">
          <mxGeometry x="21" y="35" width="66" height="30" as="geometry" />
        </mxCell>
        <mxCell id="L5llQ_H--O1Ez9Xqa_5C-31" value="资料审核" style="rounded=1;whiteSpace=wrap;html=1;" vertex="1" parent="L5llQ_H--O1Ez9Xqa_5C-20">
          <mxGeometry x="97" y="35" width="66" height="30" as="geometry" />
        </mxCell>
        <mxCell id="L5llQ_H--O1Ez9Xqa_5C-32" value="资料批注" style="rounded=1;whiteSpace=wrap;html=1;" vertex="1" parent="L5llQ_H--O1Ez9Xqa_5C-20">
          <mxGeometry x="168" y="35" width="66" height="30" as="geometry" />
        </mxCell>
        <mxCell id="L5llQ_H--O1Ez9Xqa_5C-33" value="审核提交" style="rounded=1;whiteSpace=wrap;html=1;" vertex="1" parent="L5llQ_H--O1Ez9Xqa_5C-20">
          <mxGeometry x="21" y="85" width="66" height="30" as="geometry" />
        </mxCell>
        <mxCell id="L5llQ_H--O1Ez9Xqa_5C-29" value="直播监控和公共功能" style="swimlane;" vertex="1" parent="L5llQ_H--O1Ez9Xqa_5C-2">
          <mxGeometry x="540" y="15" width="234" height="190" as="geometry" />
        </mxCell>
        <mxCell id="L5llQ_H--O1Ez9Xqa_5C-30" value="我的工作台" style="rounded=1;whiteSpace=wrap;html=1;" vertex="1" parent="L5llQ_H--O1Ez9Xqa_5C-29">
          <mxGeometry x="10" y="29" width="66" height="30" as="geometry" />
        </mxCell>
        <mxCell id="L5llQ_H--O1Ez9Xqa_5C-19" value="直播监控" style="rounded=1;whiteSpace=wrap;html=1;" vertex="1" parent="L5llQ_H--O1Ez9Xqa_5C-29">
          <mxGeometry x="90" y="29" width="66" height="30" as="geometry" />
        </mxCell>
        <mxCell id="L5llQ_H--O1Ez9Xqa_5C-34" value="标记打点管理" style="rounded=1;whiteSpace=wrap;html=1;" vertex="1" parent="L5llQ_H--O1Ez9Xqa_5C-29">
          <mxGeometry x="168" y="29" width="66" height="30" as="geometry" />
        </mxCell>
        <mxCell id="L5llQ_H--O1Ez9Xqa_5C-35" value="提交合规记录单" style="rounded=1;whiteSpace=wrap;html=1;" vertex="1" parent="L5llQ_H--O1Ez9Xqa_5C-29">
          <mxGeometry x="10" y="95" width="66" height="30" as="geometry" />
        </mxCell>
        <mxCell id="L5llQ_H--O1Ez9Xqa_5C-36" value="操作栏查询" style="rounded=1;whiteSpace=wrap;html=1;" vertex="1" parent="L5llQ_H--O1Ez9Xqa_5C-29">
          <mxGeometry x="90" y="95" width="66" height="30" as="geometry" />
        </mxCell>
        <mxCell id="L5llQ_H--O1Ez9Xqa_5C-37" value="查看合规记录单" style="rounded=1;whiteSpace=wrap;html=1;" vertex="1" parent="L5llQ_H--O1Ez9Xqa_5C-29">
          <mxGeometry x="168" y="95" width="66" height="30" as="geometry" />
        </mxCell>
        <mxCell id="L5llQ_H--O1Ez9Xqa_5C-38" value="代办查询接口" style="rounded=1;whiteSpace=wrap;html=1;" vertex="1" parent="L5llQ_H--O1Ez9Xqa_5C-29">
          <mxGeometry x="10" y="145" width="66" height="30" as="geometry" />
        </mxCell>
        <mxCell id="L5llQ_H--O1Ez9Xqa_5C-5" value="基础功能" style="swimlane;startSize=20;horizontal=0;" vertex="1" parent="L5llQ_H--O1Ez9Xqa_5C-1">
          <mxGeometry y="240" width="800" height="120" as="geometry" />
        </mxCell>
        <mxCell id="L5llQ_H--O1Ez9Xqa_5C-39" value="语音识别" style="rounded=1;whiteSpace=wrap;html=1;" vertex="1" parent="L5llQ_H--O1Ez9Xqa_5C-5">
          <mxGeometry x="65" y="20" width="66" height="30" as="geometry" />
        </mxCell>
        <mxCell id="L5llQ_H--O1Ez9Xqa_5C-40" value="监控视频保存" style="rounded=1;whiteSpace=wrap;html=1;" vertex="1" parent="L5llQ_H--O1Ez9Xqa_5C-5">
          <mxGeometry x="160" y="20" width="80" height="30" as="geometry" />
        </mxCell>
        <mxCell id="L5llQ_H--O1Ez9Xqa_5C-41" value="同步监控平台信息到欢句云" style="rounded=1;whiteSpace=wrap;html=1;" vertex="1" parent="L5llQ_H--O1Ez9Xqa_5C-5">
          <mxGeometry x="250" y="20" width="160" height="30" as="geometry" />
        </mxCell>
        <mxCell id="L5llQ_H--O1Ez9Xqa_5C-42" value="文件资料预览和管理" style="rounded=1;whiteSpace=wrap;html=1;" vertex="1" parent="L5llQ_H--O1Ez9Xqa_5C-5">
          <mxGeometry x="450" y="20" width="110" height="30" as="geometry" />
        </mxCell>
        <mxCell id="L5llQ_H--O1Ez9Xqa_5C-43" value="认证和鉴权" style="rounded=1;whiteSpace=wrap;html=1;" vertex="1" parent="L5llQ_H--O1Ez9Xqa_5C-5">
          <mxGeometry x="590" y="20" width="66" height="30" as="geometry" />
        </mxCell>
        <mxCell id="L5llQ_H--O1Ez9Xqa_5C-44" value="OA一键登录" style="rounded=1;whiteSpace=wrap;html=1;" vertex="1" parent="L5llQ_H--O1Ez9Xqa_5C-5">
          <mxGeometry x="690" y="20" width="80" height="30" as="geometry" />
        </mxCell>
        <mxCell id="L5llQ_H--O1Ez9Xqa_5C-45" value="定时任务框架" style="rounded=1;whiteSpace=wrap;html=1;" vertex="1" parent="L5llQ_H--O1Ez9Xqa_5C-5">
          <mxGeometry x="65" y="80" width="95" height="30" as="geometry" />
        </mxCell>
        <mxCell id="L5llQ_H--O1Ez9Xqa_5C-3" value="基础数据层" style="swimlane;startSize=20;horizontal=0;" vertex="1" parent="L5llQ_H--O1Ez9Xqa_5C-1">
          <mxGeometry y="360" width="800" height="120" as="geometry" />
        </mxCell>
        <mxCell id="L5llQ_H--O1Ez9Xqa_5C-47" value="用户数据" style="rounded=1;whiteSpace=wrap;html=1;" vertex="1" parent="L5llQ_H--O1Ez9Xqa_5C-3">
          <mxGeometry x="46" y="40" width="66" height="30" as="geometry" />
        </mxCell>
        <mxCell id="L5llQ_H--O1Ez9Xqa_5C-48" value="配置数据" style="rounded=1;whiteSpace=wrap;html=1;" vertex="1" parent="L5llQ_H--O1Ez9Xqa_5C-3">
          <mxGeometry x="150" y="43" width="66" height="30" as="geometry" />
        </mxCell>
        <mxCell id="L5llQ_H--O1Ez9Xqa_5C-49" value="直播间申请单数据" style="rounded=1;whiteSpace=wrap;html=1;" vertex="1" parent="L5llQ_H--O1Ez9Xqa_5C-3">
          <mxGeometry x="250" y="40" width="110" height="30" as="geometry" />
        </mxCell>
        <mxCell id="L5llQ_H--O1Ez9Xqa_5C-50" value="语音识别数据" style="rounded=1;whiteSpace=wrap;html=1;" vertex="1" parent="L5llQ_H--O1Ez9Xqa_5C-3">
          <mxGeometry x="380" y="40" width="80" height="30" as="geometry" />
        </mxCell>
        <mxCell id="L5llQ_H--O1Ez9Xqa_5C-51" value="直播视频数据" style="rounded=1;whiteSpace=wrap;html=1;" vertex="1" parent="L5llQ_H--O1Ez9Xqa_5C-3">
          <mxGeometry x="490" y="40" width="80" height="30" as="geometry" />
        </mxCell>
        <mxCell id="L5llQ_H--O1Ez9Xqa_5C-52" value="文件资料" style="rounded=1;whiteSpace=wrap;html=1;" vertex="1" parent="L5llQ_H--O1Ez9Xqa_5C-3">
          <mxGeometry x="610" y="43" width="80" height="30" as="geometry" />
        </mxCell>
      </root>
    </mxGraphModel>
  </diagram>
</mxfile>
